<!DOCTYPE svg PUBLIC "-//W3C//DTD SVG 1.1//EN" "http://www.w3.org/Graphics/SVG/1.1/DTD/svg11.dtd">
<!-- Uploaded to: SVG Repo, www.svgrepo.com, Transformed by: SVG Repo Mixer Tools -->
<svg version="1.1" id="Layer_1" xmlns="http://www.w3.org/2000/svg" xmlns:xlink="http://www.w3.org/1999/xlink" viewBox="0 0 374.372 374.372" xml:space="preserve" width="800px" height="800px" fill="#000000">
<g id="SVGRepo_bgCarrier" stroke-width="0"/>
<g id="SVGRepo_tracerCarrier" stroke-linecap="round" stroke-linejoin="round"/>
<g id="SVGRepo_iconCarrier"> <g> <g> <rect x="110.58" y="72.706" style="fill:#399f32;" width="10.902" height="58.135"/> <path style="fill:#dda3b6;" d="M157.974,57.195c0,23.165-18.779,41.943-41.943,41.943S74.088,80.359,74.088,57.195V0 c23.164,0,41.943,18.779,41.943,41.943C116.031,18.779,134.809,0,157.974,0V57.195z"/> </g> <g> <rect x="252.89" y="72.706" style="fill:#399f32;" width="10.902" height="58.135"/> <path style="fill:#dda3b6;" d="M300.285,57.195c0,23.165-18.779,41.943-41.944,41.943c-23.164,0-41.943-18.779-41.943-41.943V0 c23.165,0,41.943,18.779,41.943,41.943C258.341,18.779,277.12,0,300.285,0V57.195z"/> </g> <g> <rect x="181.735" y="72.706" style="fill:#399f32;" width="10.902" height="58.135"/> <path style="fill:#ffcd61;" d="M229.129,57.195c0,23.165-18.778,41.943-41.943,41.943s-41.943-18.779-41.943-41.943V0 c23.165,0,41.943,18.779,41.943,41.943C187.186,18.779,205.965,0,229.129,0V57.195z"/> </g> <polygon style="fill:#c9d4d3;" points="300.285,130.841 74.087,130.841 187.186,374.372 "/> <polygon style="fill:#c4bfba;" points="300.285,130.841 212.559,130.841 256.422,225.289 "/> </g> </g>
</svg>